# xmcd
#
# Track frame offsets:
#	150
#	21951
#	40369
#	62010
#	76116
#	101573
#	132453
#	150048
#	166582
#	184669
#	199870
#	215899
#	233456
#	255719
#	282130
#
# Disc length: 3917 seconds
# Revision: 1
# Processed by: cddbd v1.5.2PL0 Copyright (c) Steve Scherf et al.
# Submitted via: dBpowerAMP V12.0
#
DISCID=c00f4b0f
DTITLE=Various Artist - The Blues Magazine: The Cream 2015
DYEAR=2015
DGENRE=Blues
TTITLE0=Sonny Landreth - Walkin' Blues
TTITLE1=Shemekia Copeland - Outskirts Of Love
TTITLE2=Joe Bonamassa - I Can't Be Satisfied (Live)
TTITLE3=King King - Hurricane (Remix)
TTITLE4=Walter Trout - Almost Gone
TTITLE5=Robert Cray - Right Next Door (Because Of Me) (Live)
TTITLE6=Samantha Fish - Jim Lee Blues Pt 1
TTITLE7=Laurence Jones - Touch Your Moonlight
TTITLE8=Beth Hart - Might As Well Smile
TTITLE9=Mike Vernon - Just A Little Bit
TTITLE10=Songhoy Blues - Soubour
TTITLE11=Mike Zito and The Wheel - Get Busy Living
TTITLE12=The Graveltones - Running To You
TTITLE13=Royal Southern Brotherhood - The Big Greasy
TTITLE14=Jared James Nichols - Come In My Kitchen
EXTD=
EXTT0=
EXTT1=
EXTT2=
EXTT3=
EXTT4=
EXTT5=
EXTT6=
EXTT7=
EXTT8=
EXTT9=
EXTT10=
EXTT11=
EXTT12=
EXTT13=
EXTT14=
PLAYORDER=
